<mxfile host="app.diagrams.net" modified="2022-05-10T10:26:41.086Z" agent="5.0 (Windows NT 10.0; Win64; x64) AppleWebKit/537.36 (KHTML, like Gecko) Chrome/101.0.4951.54 Safari/537.36" etag="gXE7cQfWq6KW4dVxVLFp" version="17.5.0" type="github">
  <diagram name="Page-1" id="12e1b939-464a-85fe-373e-61e167be1490">
    <mxGraphModel dx="1983" dy="1170" grid="1" gridSize="10" guides="1" tooltips="1" connect="1" arrows="1" fold="1" page="1" pageScale="1.5" pageWidth="1169" pageHeight="826" background="none" math="0" shadow="0">
      <root>
        <mxCell id="0" />
        <mxCell id="1" parent="0" />
        <mxCell id="6cxzUDg0vM3e0AavbFqb-1" value="&lt;h1&gt;&lt;font size=&quot;1&quot;&gt;&lt;b style=&quot;font-size: 60px&quot;&gt;&lt;i&gt;Report 3 Bulan&lt;/i&gt;&lt;/b&gt;&lt;/font&gt;&lt;/h1&gt;" style="text;html=1;align=center;verticalAlign=middle;resizable=0;points=[];autosize=1;strokeColor=#d6b656;fillColor=#fff2cc;" vertex="1" parent="1">
          <mxGeometry x="685" y="85" width="440" height="70" as="geometry" />
        </mxCell>
        <mxCell id="6cxzUDg0vM3e0AavbFqb-2" value="&lt;h1&gt;&lt;font style=&quot;font-size: 55px&quot;&gt;&lt;b&gt;&lt;i&gt;Bulan Februari&lt;/i&gt;&lt;/b&gt;&lt;/font&gt;&lt;/h1&gt;" style="text;html=1;align=center;verticalAlign=middle;resizable=0;points=[];autosize=1;" vertex="1" parent="1">
          <mxGeometry x="105" y="260" width="400" height="60" as="geometry" />
        </mxCell>
        <mxCell id="6cxzUDg0vM3e0AavbFqb-6" value="&lt;h1&gt;&lt;font style=&quot;font-size: 55px&quot;&gt;&lt;b&gt;&lt;span style=&quot;font-size: 50px&quot;&gt;Baru = 130&lt;/span&gt;&lt;/b&gt;&lt;/font&gt;&lt;/h1&gt;&lt;div&gt;&lt;font style=&quot;font-size: 55px&quot;&gt;&lt;b&gt;&lt;span style=&quot;font-size: 50px&quot;&gt;Lama =&amp;nbsp;&lt;/span&gt;&lt;/b&gt;&lt;/font&gt;&lt;/div&gt;" style="text;html=1;align=left;verticalAlign=middle;resizable=0;points=[];autosize=1;" vertex="1" parent="1">
          <mxGeometry x="240" y="395" width="270" height="90" as="geometry" />
        </mxCell>
      </root>
    </mxGraphModel>
  </diagram>
</mxfile>
